<svg xmlns="http://www.w3.org/2000/svg" xmlns:xlink="http://www.w3.org/1999/xlink" contentStyleType="text/css" height="274px" preserveAspectRatio="none" style="width:866px;height:274px;background:#FFFFFF;" version="1.1" viewBox="0 0 866 274" width="866px" zoomAndPan="magnify"><defs><filter height="300%" id="f1iw7t8n2htjn7" width="300%" x="-1" y="-1"><feGaussianBlur result="blurOut" stdDeviation="2.0"/><feColorMatrix in="blurOut" result="blurOut2" type="matrix" values="0 0 0 0 0 0 0 0 0 0 0 0 0 0 0 0 0 0 .4 0"/><feOffset dx="4.0" dy="4.0" in="blurOut2" result="blurOut3"/><feBlend in="SourceGraphic" in2="blurOut3" mode="normal"/></filter></defs><g><!--class Capteur--><g id="elem_Capteur"><rect codeLine="3" fill="#FEFECE" filter="url(#f1iw7t8n2htjn7)" height="113.1875" id="Capteur" style="stroke:#A80036;stroke-width:1.0;" width="185.1338" x="337" y="7"/><ellipse cx="397.3306" cy="23" fill="#A9DCDF" rx="11" ry="11" style="stroke:#A80036;stroke-width:1.0;"/><path d="M397.4399,18.3438 L396.2837,23.4219 L398.6118,23.4219 L397.4399,18.3438 Z M395.9556,16.1094 L398.9399,16.1094 L402.2993,28.5 L399.8462,28.5 L399.0806,25.4375 L395.7993,25.4375 L395.0493,28.5 L392.6118,28.5 L395.9556,16.1094 Z " fill="#000000"/><text fill="#000000" font-family="sans-serif" font-size="14" font-style="italic" lengthAdjust="spacing" textLength="55.9727" x="417.8306" y="27.8467">Capteur</text><line style="stroke:#A80036;stroke-width:1.0;" x1="338" x2="521.1338" y1="39" y2="39"/><ellipse cx="348" cy="52.6484" fill="none" rx="3" ry="3" style="stroke:#038048;stroke-width:1.0;"/><text fill="#000000" font-family="sans-serif" font-size="14" lengthAdjust="spacing" textLength="129.0693" x="357" y="55.9951">id_capteur : String</text><ellipse cx="348" cy="68.9453" fill="none" rx="3" ry="3" style="stroke:#038048;stroke-width:1.0;"/><text fill="#000000" font-family="sans-serif" font-size="14" lengthAdjust="spacing" textLength="151.9287" x="357" y="72.292">emplacement : String</text><line style="stroke:#A80036;stroke-width:1.0;" x1="338" x2="521.1338" y1="79.5938" y2="79.5938"/><ellipse cx="348" cy="93.2422" fill="#84BE84" rx="3" ry="3" style="stroke:#038048;stroke-width:1.0;"/><text fill="#000000" font-family="sans-serif" font-size="14" lengthAdjust="spacing" textLength="132.2617" x="357" y="96.5889">lire_valeur() : Float</text><ellipse cx="348" cy="109.5391" fill="#84BE84" rx="3" ry="3" style="stroke:#038048;stroke-width:1.0;"/><text fill="#000000" font-family="sans-serif" font-size="14" lengthAdjust="spacing" textLength="159.1338" x="357" y="112.8857">obtenir_unite() : String</text></g><!--class CapteurTemperature--><g id="elem_CapteurTemperature"><rect codeLine="10" fill="#FEFECE" filter="url(#f1iw7t8n2htjn7)" height="80.5938" id="CapteurTemperature" style="stroke:#A80036;stroke-width:1.0;" width="185.1338" x="7" y="180"/><ellipse cx="24.6064" cy="196" fill="#ADD1B2" rx="11" ry="11" style="stroke:#A80036;stroke-width:1.0;"/><path d="M27.5751,201.6406 Q26.997,201.9375 26.3564,202.0781 Q25.7158,202.2344 25.0126,202.2344 Q22.5126,202.2344 21.1845,200.5938 Q19.872,198.9375 19.872,195.8125 Q19.872,192.6875 21.1845,191.0313 Q22.5126,189.375 25.0126,189.375 Q25.7158,189.375 26.3564,189.5313 Q27.0126,189.6875 27.5751,189.9844 L27.5751,192.7031 Q26.9501,192.125 26.3564,191.8594 Q25.7626,191.5781 25.1376,191.5781 Q23.7939,191.5781 23.1064,192.6563 Q22.4189,193.7188 22.4189,195.8125 Q22.4189,197.9063 23.1064,198.9844 Q23.7939,200.0469 25.1376,200.0469 Q25.7626,200.0469 26.3564,199.7813 Q26.9501,199.5 27.5751,198.9219 L27.5751,201.6406 Z " fill="#000000"/><text fill="#000000" font-family="sans-serif" font-size="14" lengthAdjust="spacing" textLength="147.3418" x="39.1856" y="200.8467">CapteurTemperature</text><line style="stroke:#A80036;stroke-width:1.0;" x1="8" x2="191.1338" y1="212" y2="212"/><line style="stroke:#A80036;stroke-width:1.0;" x1="8" x2="191.1338" y1="220" y2="220"/><ellipse cx="18" cy="233.6484" fill="#84BE84" rx="3" ry="3" style="stroke:#038048;stroke-width:1.0;"/><text fill="#000000" font-family="sans-serif" font-size="14" lengthAdjust="spacing" textLength="132.2617" x="27" y="236.9951">lire_valeur() : Float</text><ellipse cx="18" cy="249.9453" fill="#84BE84" rx="3" ry="3" style="stroke:#038048;stroke-width:1.0;"/><text fill="#000000" font-family="sans-serif" font-size="14" lengthAdjust="spacing" textLength="159.1338" x="27" y="253.292">obtenir_unite() : String</text></g><!--class CapteurPression--><g id="elem_CapteurPression"><rect codeLine="15" fill="#FEFECE" filter="url(#f1iw7t8n2htjn7)" height="80.5938" id="CapteurPression" style="stroke:#A80036;stroke-width:1.0;" width="185.1338" x="227" y="180"/><ellipse cx="259.2951" cy="196" fill="#ADD1B2" rx="11" ry="11" style="stroke:#A80036;stroke-width:1.0;"/><path d="M262.2639,201.6406 Q261.6857,201.9375 261.0451,202.0781 Q260.4045,202.2344 259.7014,202.2344 Q257.2014,202.2344 255.8732,200.5938 Q254.5607,198.9375 254.5607,195.8125 Q254.5607,192.6875 255.8732,191.0313 Q257.2014,189.375 259.7014,189.375 Q260.4045,189.375 261.0451,189.5313 Q261.7014,189.6875 262.2639,189.9844 L262.2639,192.7031 Q261.6389,192.125 261.0451,191.8594 Q260.4514,191.5781 259.8264,191.5781 Q258.4826,191.5781 257.7951,192.6563 Q257.1076,193.7188 257.1076,195.8125 Q257.1076,197.9063 257.7951,198.9844 Q258.4826,200.0469 259.8264,200.0469 Q260.4514,200.0469 261.0451,199.7813 Q261.6389,199.5 262.2639,198.9219 L262.2639,201.6406 Z " fill="#000000"/><text fill="#000000" font-family="sans-serif" font-size="14" lengthAdjust="spacing" textLength="114.7002" x="277.1385" y="200.8467">CapteurPression</text><line style="stroke:#A80036;stroke-width:1.0;" x1="228" x2="411.1338" y1="212" y2="212"/><line style="stroke:#A80036;stroke-width:1.0;" x1="228" x2="411.1338" y1="220" y2="220"/><ellipse cx="238" cy="233.6484" fill="#84BE84" rx="3" ry="3" style="stroke:#038048;stroke-width:1.0;"/><text fill="#000000" font-family="sans-serif" font-size="14" lengthAdjust="spacing" textLength="132.2617" x="247" y="236.9951">lire_valeur() : Float</text><ellipse cx="238" cy="249.9453" fill="#84BE84" rx="3" ry="3" style="stroke:#038048;stroke-width:1.0;"/><text fill="#000000" font-family="sans-serif" font-size="14" lengthAdjust="spacing" textLength="159.1338" x="247" y="253.292">obtenir_unite() : String</text></g><!--class CapteurHumidite--><g id="elem_CapteurHumidite"><rect codeLine="20" fill="#FEFECE" filter="url(#f1iw7t8n2htjn7)" height="80.5938" id="CapteurHumidite" style="stroke:#A80036;stroke-width:1.0;" width="185.1338" x="447" y="180"/><ellipse cx="477.0095" cy="196" fill="#ADD1B2" rx="11" ry="11" style="stroke:#A80036;stroke-width:1.0;"/><path d="M479.9783,201.6406 Q479.4001,201.9375 478.7595,202.0781 Q478.1189,202.2344 477.4158,202.2344 Q474.9158,202.2344 473.5876,200.5938 Q472.2751,198.9375 472.2751,195.8125 Q472.2751,192.6875 473.5876,191.0313 Q474.9158,189.375 477.4158,189.375 Q478.1189,189.375 478.7595,189.5313 Q479.4158,189.6875 479.9783,189.9844 L479.9783,192.7031 Q479.3533,192.125 478.7595,191.8594 Q478.1658,191.5781 477.5408,191.5781 Q476.197,191.5781 475.5095,192.6563 Q474.822,193.7188 474.822,195.8125 Q474.822,197.9063 475.5095,198.9844 Q476.197,200.0469 477.5408,200.0469 Q478.1658,200.0469 478.7595,199.7813 Q479.3533,199.5 479.9783,198.9219 L479.9783,201.6406 Z " fill="#000000"/><text fill="#000000" font-family="sans-serif" font-size="14" lengthAdjust="spacing" textLength="119.7793" x="494.345" y="200.8467">CapteurHumidite</text><line style="stroke:#A80036;stroke-width:1.0;" x1="448" x2="631.1338" y1="212" y2="212"/><line style="stroke:#A80036;stroke-width:1.0;" x1="448" x2="631.1338" y1="220" y2="220"/><ellipse cx="458" cy="233.6484" fill="#84BE84" rx="3" ry="3" style="stroke:#038048;stroke-width:1.0;"/><text fill="#000000" font-family="sans-serif" font-size="14" lengthAdjust="spacing" textLength="132.2617" x="467" y="236.9951">lire_valeur() : Float</text><ellipse cx="458" cy="249.9453" fill="#84BE84" rx="3" ry="3" style="stroke:#038048;stroke-width:1.0;"/><text fill="#000000" font-family="sans-serif" font-size="14" lengthAdjust="spacing" textLength="159.1338" x="467" y="253.292">obtenir_unite() : String</text></g><!--class CapteurRadiation--><g id="elem_CapteurRadiation"><rect codeLine="25" fill="#FEFECE" filter="url(#f1iw7t8n2htjn7)" height="80.5938" id="CapteurRadiation" style="stroke:#A80036;stroke-width:1.0;" width="185.1338" x="667" y="180"/><ellipse cx="695.8067" cy="196" fill="#ADD1B2" rx="11" ry="11" style="stroke:#A80036;stroke-width:1.0;"/><path d="M698.7755,201.6406 Q698.1974,201.9375 697.5567,202.0781 Q696.9161,202.2344 696.213,202.2344 Q693.713,202.2344 692.3849,200.5938 Q691.0724,198.9375 691.0724,195.8125 Q691.0724,192.6875 692.3849,191.0313 Q693.713,189.375 696.213,189.375 Q696.9161,189.375 697.5567,189.5313 Q698.213,189.6875 698.7755,189.9844 L698.7755,192.7031 Q698.1505,192.125 697.5567,191.8594 Q696.963,191.5781 696.338,191.5781 Q694.9942,191.5781 694.3067,192.6563 Q693.6192,193.7188 693.6192,195.8125 Q693.6192,197.9063 694.3067,198.9844 Q694.9942,200.0469 696.338,200.0469 Q696.963,200.0469 697.5567,199.7813 Q698.1505,199.5 698.7755,198.9219 L698.7755,201.6406 Z " fill="#000000"/><text fill="#000000" font-family="sans-serif" font-size="14" lengthAdjust="spacing" textLength="122.4521" x="712.8749" y="200.8467">CapteurRadiation</text><line style="stroke:#A80036;stroke-width:1.0;" x1="668" x2="851.1338" y1="212" y2="212"/><line style="stroke:#A80036;stroke-width:1.0;" x1="668" x2="851.1338" y1="220" y2="220"/><ellipse cx="678" cy="233.6484" fill="#84BE84" rx="3" ry="3" style="stroke:#038048;stroke-width:1.0;"/><text fill="#000000" font-family="sans-serif" font-size="14" lengthAdjust="spacing" textLength="132.2617" x="687" y="236.9951">lire_valeur() : Float</text><ellipse cx="678" cy="249.9453" fill="#84BE84" rx="3" ry="3" style="stroke:#038048;stroke-width:1.0;"/><text fill="#000000" font-family="sans-serif" font-size="14" lengthAdjust="spacing" textLength="159.1338" x="687" y="253.292">obtenir_unite() : String</text></g><!--reverse link Capteur to CapteurTemperature--><g id="link_Capteur_CapteurTemperature"><path codeLine="30" d="M320.4071,115.7413 C272.3671,138.3013 230.45,157.99 183.71,179.95 " fill="none" id="Capteur-backto-CapteurTemperature" style="stroke:#A80036;stroke-width:1.0;"/><polygon fill="none" points="336.7,108.09,317.8567,110.3103,322.9575,121.1722,336.7,108.09" style="stroke:#A80036;stroke-width:1.0;"/></g><!--reverse link Capteur to CapteurPression--><g id="link_Capteur_CapteurPression"><path codeLine="31" d="M379.6819,134.6987 C365.6219,154.5087 360.51,161.72 347.59,179.91 " fill="none" id="Capteur-backto-CapteurPression" style="stroke:#A80036;stroke-width:1.0;"/><polygon fill="none" points="390.1,120.02,374.789,131.226,384.5748,138.1714,390.1,120.02" style="stroke:#A80036;stroke-width:1.0;"/></g><!--reverse link Capteur to CapteurHumidite--><g id="link_Capteur_CapteurHumidite"><path codeLine="32" d="M479.3181,134.6987 C493.3781,154.5087 498.49,161.72 511.41,179.91 " fill="none" id="Capteur-backto-CapteurHumidite" style="stroke:#A80036;stroke-width:1.0;"/><polygon fill="none" points="468.9,120.02,474.4252,138.1714,484.211,131.226,468.9,120.02" style="stroke:#A80036;stroke-width:1.0;"/></g><!--reverse link Capteur to CapteurRadiation--><g id="link_Capteur_CapteurRadiation"><path codeLine="33" d="M538.5929,115.7413 C586.6329,138.3013 628.55,157.99 675.29,179.95 " fill="none" id="Capteur-backto-CapteurRadiation" style="stroke:#A80036;stroke-width:1.0;"/><polygon fill="none" points="522.3,108.09,536.0425,121.1722,541.1433,110.3103,522.3,108.09" style="stroke:#A80036;stroke-width:1.0;"/></g><!--SRC=[hP712i8m38RlVOeU5TaBY3T1F8fwBraN9DYr8qszgEzkfvimw6qx9b_ovqyIx-GrXuXAGHs5mOgs3cBKU-W44-kdqdf3ZR53lDKNOVAtFerjvy1YYrucUKUCvW4krw_McHnS0Eb1g0KziKcU1BzeQ7ehDHbxpTB888dnvs2-v8anHWf-ARrZQgd9DKlfdQ4Xa7a6nwVjNbLLE6MHZtSfmd798lmx_W00]--></g></svg>