<?xml version="1.0" encoding="UTF-8" standalone="no"?>
<svg
   contentStyleType="text/css"
   height="465px"
   preserveAspectRatio="none"
   style="width:866px;height:465px;background:#FFFFFF;"
   version="1.1"
   viewBox="0 0 866 465"
   width="866px"
   zoomAndPan="magnify"
   id="svg27"
   sodipodi:docname="diag_classes_elec3.svg"
   inkscape:export-filename="diag_classes_elec3.png"
   inkscape:export-xdpi="96"
   inkscape:export-ydpi="96"
   inkscape:version="1.3.2 (091e20e, 2023-11-25)"
   xmlns:inkscape="http://www.inkscape.org/namespaces/inkscape"
   xmlns:sodipodi="http://sodipodi.sourceforge.net/DTD/sodipodi-0.dtd"
   xmlns="http://www.w3.org/2000/svg"
   xmlns:svg="http://www.w3.org/2000/svg">
  <sodipodi:namedview
     id="namedview27"
     pagecolor="#ffffff"
     bordercolor="#000000"
     borderopacity="0.25"
     inkscape:showpageshadow="2"
     inkscape:pageopacity="0.0"
     inkscape:pagecheckerboard="0"
     inkscape:deskcolor="#d1d1d1"
     inkscape:zoom="0.50752688"
     inkscape:cx="433.47458"
     inkscape:cy="232.5"
     inkscape:window-width="1472"
     inkscape:window-height="449"
     inkscape:window-x="0"
     inkscape:window-y="38"
     inkscape:window-maximized="0"
     inkscape:current-layer="svg27" />
  <defs
     id="defs1">
    <filter
       height="1.1811554"
       id="f6wf5jviumg1f"
       width="1.0788619"
       x="-0.028627943"
       y="-0.06576188">
      <feGaussianBlur
         result="blurOut"
         stdDeviation="2.0"
         id="feGaussianBlur1" />
      <feColorMatrix
         in="blurOut"
         result="blurOut2"
         type="matrix"
         values="0 0 0 0 0 0 0 0 0 0 0 0 0 0 0 0 0 0 .4 0"
         id="feColorMatrix1" />
      <feOffset
         dx="4.0"
         dy="4.0"
         in="blurOut2"
         result="blurOut3"
         id="feOffset1" />
      <feBlend
         in="SourceGraphic"
         in2="blurOut3"
         mode="normal"
         id="feBlend1" />
    </filter>
  </defs>
  <g
     id="g27">
    <!--class Capteur-->
    <g
       id="elem_Capteur">
      <rect
         codeLine="4"
         fill="#FEFECE"
         filter="url(#f6wf5jviumg1f)"
         height="129.4844"
         id="Capteur"
         style="stroke:#A80036;stroke-width:1.0;"
         width="185.1338"
         x="337"
         y="181" />
      <ellipse
         cx="397.3306"
         cy="197"
         fill="#A9DCDF"
         rx="11"
         ry="11"
         style="stroke:#A80036;stroke-width:1.0;"
         id="ellipse1" />
      <path
         d="M397.4399,192.3438 L396.2837,197.4219 L398.6118,197.4219 L397.4399,192.3438 Z M395.9556,190.1094 L398.9399,190.1094 L402.2993,202.5 L399.8462,202.5 L399.0806,199.4375 L395.7993,199.4375 L395.0493,202.5 L392.6118,202.5 L395.9556,190.1094 Z "
         fill="#000000"
         id="path1" />
      <text
         fill="#000000"
         font-family="sans-serif"
         font-size="14"
         font-style="italic"
         lengthAdjust="spacing"
         textLength="55.9727"
         x="417.8306"
         y="201.8467"
         id="text1">Capteur</text>
      <line
         style="stroke:#A80036;stroke-width:1.0;"
         x1="338"
         x2="521.1338"
         y1="213"
         y2="213"
         id="line1" />
      <ellipse
         cx="348"
         cy="226.6484"
         fill="none"
         rx="3"
         ry="3"
         style="stroke:#038048;stroke-width:1.0;"
         id="ellipse2" />
      <text
         fill="#000000"
         font-family="sans-serif"
         font-size="14"
         lengthAdjust="spacing"
         textLength="129.0693"
         x="357"
         y="229.9951"
         id="text2">id_capteur : String</text>
      <ellipse
         cx="348"
         cy="242.9453"
         fill="none"
         rx="3"
         ry="3"
         style="stroke:#038048;stroke-width:1.0;"
         id="ellipse3" />
      <text
         fill="#000000"
         font-family="sans-serif"
         font-size="14"
         lengthAdjust="spacing"
         textLength="151.9287"
         x="357"
         y="246.292"
         id="text3">emplacement : String</text>
      <line
         style="stroke:#A80036;stroke-width:1.0;"
         x1="338"
         x2="521.1338"
         y1="253.5938"
         y2="253.5938"
         id="line3" />
      <ellipse
         cx="348"
         cy="267.2422"
         fill="#84BE84"
         rx="3"
         ry="3"
         style="stroke:#038048;stroke-width:1.0;"
         id="ellipse4" />
      <text
         fill="#000000"
         font-family="sans-serif"
         font-size="14"
         lengthAdjust="spacing"
         textLength="132.2617"
         x="357"
         y="270.5889"
         id="text4">lire_valeur() : Float</text>
      <ellipse
         cx="348"
         cy="283.5391"
         fill="#84BE84"
         rx="3"
         ry="3"
         style="stroke:#038048;stroke-width:1.0;"
         id="ellipse5" />
      <text
         fill="#000000"
         font-family="sans-serif"
         font-size="14"
         lengthAdjust="spacing"
         textLength="159.1338"
         x="357"
         y="286.8857"
         id="text5">obtenir_unite() : String</text>
      <ellipse
         cx="348"
         cy="299.8359"
         fill="#84BE84"
         rx="3"
         ry="3"
         style="stroke:#038048;stroke-width:1.0;"
         id="ellipse6" />
      <text
         fill="#000000"
         font-family="sans-serif"
         font-size="14"
         lengthAdjust="spacing"
         textLength="107.2354"
         x="357"
         y="303.1826"
         id="text6">calibrer() : void</text>
    </g>
    <!--class CapteurTemperature-->
    <g
       id="elem_CapteurTemperature">
      <rect
         codeLine="13"
         fill="#FEFECE"
         filter="url(#f6wf5jviumg1f)"
         height="80.5938"
         id="CapteurTemperature"
         style="stroke:#A80036;stroke-width:1.0;"
         width="185.1338"
         x="7"
         y="371" />
      <ellipse
         cx="24.6064"
         cy="387"
         fill="#ADD1B2"
         rx="11"
         ry="11"
         style="stroke:#A80036;stroke-width:1.0;"
         id="ellipse7" />
      <path
         d="M27.5751,392.6406 Q26.997,392.9375 26.3564,393.0781 Q25.7158,393.2344 25.0126,393.2344 Q22.5126,393.2344 21.1845,391.5938 Q19.872,389.9375 19.872,386.8125 Q19.872,383.6875 21.1845,382.0313 Q22.5126,380.375 25.0126,380.375 Q25.7158,380.375 26.3564,380.5313 Q27.0126,380.6875 27.5751,380.9844 L27.5751,383.7031 Q26.9501,383.125 26.3564,382.8594 Q25.7626,382.5781 25.1376,382.5781 Q23.7939,382.5781 23.1064,383.6563 Q22.4189,384.7188 22.4189,386.8125 Q22.4189,388.9063 23.1064,389.9844 Q23.7939,391.0469 25.1376,391.0469 Q25.7626,391.0469 26.3564,390.7813 Q26.9501,390.5 27.5751,389.9219 L27.5751,392.6406 Z "
         fill="#000000"
         id="path7" />
      <text
         fill="#000000"
         font-family="sans-serif"
         font-size="14"
         lengthAdjust="spacing"
         textLength="147.3418"
         x="39.1856"
         y="391.8467"
         id="text7">CapteurTemperature</text>
      <line
         style="stroke:#A80036;stroke-width:1.0;"
         x1="8"
         x2="191.1338"
         y1="403"
         y2="403"
         id="line7" />
      <line
         style="stroke:#A80036;stroke-width:1.0;"
         x1="8"
         x2="191.1338"
         y1="411"
         y2="411"
         id="line8" />
      <ellipse
         cx="18"
         cy="424.6484"
         fill="#84BE84"
         rx="3"
         ry="3"
         style="stroke:#038048;stroke-width:1.0;"
         id="ellipse8" />
      <text
         fill="#000000"
         font-family="sans-serif"
         font-size="14"
         lengthAdjust="spacing"
         textLength="132.2617"
         x="27"
         y="427.9951"
         id="text8">lire_valeur() : Float</text>
      <ellipse
         cx="18"
         cy="440.9453"
         fill="#84BE84"
         rx="3"
         ry="3"
         style="stroke:#038048;stroke-width:1.0;"
         id="ellipse9" />
      <text
         fill="#000000"
         font-family="sans-serif"
         font-size="14"
         lengthAdjust="spacing"
         textLength="159.1338"
         x="27"
         y="444.292"
         id="text9">obtenir_unite() : String</text>
    </g>
    <!--class CapteurPression-->
    <g
       id="elem_CapteurPression">
      <rect
         codeLine="18"
         fill="#FEFECE"
         filter="url(#f6wf5jviumg1f)"
         height="80.5938"
         id="CapteurPression"
         style="stroke:#A80036;stroke-width:1.0;"
         width="185.1338"
         x="227"
         y="371" />
      <ellipse
         cx="259.2951"
         cy="387"
         fill="#ADD1B2"
         rx="11"
         ry="11"
         style="stroke:#A80036;stroke-width:1.0;"
         id="ellipse10" />
      <path
         d="M262.2639,392.6406 Q261.6857,392.9375 261.0451,393.0781 Q260.4045,393.2344 259.7014,393.2344 Q257.2014,393.2344 255.8732,391.5938 Q254.5607,389.9375 254.5607,386.8125 Q254.5607,383.6875 255.8732,382.0313 Q257.2014,380.375 259.7014,380.375 Q260.4045,380.375 261.0451,380.5313 Q261.7014,380.6875 262.2639,380.9844 L262.2639,383.7031 Q261.6389,383.125 261.0451,382.8594 Q260.4514,382.5781 259.8264,382.5781 Q258.4826,382.5781 257.7951,383.6563 Q257.1076,384.7188 257.1076,386.8125 Q257.1076,388.9063 257.7951,389.9844 Q258.4826,391.0469 259.8264,391.0469 Q260.4514,391.0469 261.0451,390.7813 Q261.6389,390.5 262.2639,389.9219 L262.2639,392.6406 Z "
         fill="#000000"
         id="path10" />
      <text
         fill="#000000"
         font-family="sans-serif"
         font-size="14"
         lengthAdjust="spacing"
         textLength="114.7002"
         x="277.1385"
         y="391.8467"
         id="text10">CapteurPression</text>
      <line
         style="stroke:#A80036;stroke-width:1.0;"
         x1="228"
         x2="411.1338"
         y1="403"
         y2="403"
         id="line10" />
      <line
         style="stroke:#A80036;stroke-width:1.0;"
         x1="228"
         x2="411.1338"
         y1="411"
         y2="411"
         id="line11" />
      <ellipse
         cx="238"
         cy="424.6484"
         fill="#84BE84"
         rx="3"
         ry="3"
         style="stroke:#038048;stroke-width:1.0;"
         id="ellipse11" />
      <text
         fill="#000000"
         font-family="sans-serif"
         font-size="14"
         lengthAdjust="spacing"
         textLength="132.2617"
         x="247"
         y="427.9951"
         id="text11">lire_valeur() : Float</text>
      <ellipse
         cx="238"
         cy="440.9453"
         fill="#84BE84"
         rx="3"
         ry="3"
         style="stroke:#038048;stroke-width:1.0;"
         id="ellipse12" />
      <text
         fill="#000000"
         font-family="sans-serif"
         font-size="14"
         lengthAdjust="spacing"
         textLength="159.1338"
         x="247"
         y="444.292"
         id="text12">obtenir_unite() : String</text>
    </g>
    <!--class CapteurHumidite-->
    <g
       id="elem_CapteurHumidite">
      <rect
         codeLine="23"
         fill="#FEFECE"
         filter="url(#f6wf5jviumg1f)"
         height="80.5938"
         id="CapteurHumidite"
         style="stroke:#A80036;stroke-width:1.0;"
         width="185.1338"
         x="447"
         y="371" />
      <ellipse
         cx="477.0095"
         cy="387"
         fill="#ADD1B2"
         rx="11"
         ry="11"
         style="stroke:#A80036;stroke-width:1.0;"
         id="ellipse13" />
      <path
         d="M479.9783,392.6406 Q479.4001,392.9375 478.7595,393.0781 Q478.1189,393.2344 477.4158,393.2344 Q474.9158,393.2344 473.5876,391.5938 Q472.2751,389.9375 472.2751,386.8125 Q472.2751,383.6875 473.5876,382.0313 Q474.9158,380.375 477.4158,380.375 Q478.1189,380.375 478.7595,380.5313 Q479.4158,380.6875 479.9783,380.9844 L479.9783,383.7031 Q479.3533,383.125 478.7595,382.8594 Q478.1658,382.5781 477.5408,382.5781 Q476.197,382.5781 475.5095,383.6563 Q474.822,384.7188 474.822,386.8125 Q474.822,388.9063 475.5095,389.9844 Q476.197,391.0469 477.5408,391.0469 Q478.1658,391.0469 478.7595,390.7813 Q479.3533,390.5 479.9783,389.9219 L479.9783,392.6406 Z "
         fill="#000000"
         id="path13" />
      <text
         fill="#000000"
         font-family="sans-serif"
         font-size="14"
         lengthAdjust="spacing"
         textLength="119.7793"
         x="494.345"
         y="391.8467"
         id="text13">CapteurHumidite</text>
      <line
         style="stroke:#A80036;stroke-width:1.0;"
         x1="448"
         x2="631.1338"
         y1="403"
         y2="403"
         id="line13" />
      <line
         style="stroke:#A80036;stroke-width:1.0;"
         x1="448"
         x2="631.1338"
         y1="411"
         y2="411"
         id="line14" />
      <ellipse
         cx="458"
         cy="424.6484"
         fill="#84BE84"
         rx="3"
         ry="3"
         style="stroke:#038048;stroke-width:1.0;"
         id="ellipse14" />
      <text
         fill="#000000"
         font-family="sans-serif"
         font-size="14"
         lengthAdjust="spacing"
         textLength="132.2617"
         x="467"
         y="427.9951"
         id="text14">lire_valeur() : Float</text>
      <ellipse
         cx="458"
         cy="440.9453"
         fill="#84BE84"
         rx="3"
         ry="3"
         style="stroke:#038048;stroke-width:1.0;"
         id="ellipse15" />
      <text
         fill="#000000"
         font-family="sans-serif"
         font-size="14"
         lengthAdjust="spacing"
         textLength="159.1338"
         x="467"
         y="444.292"
         id="text15">obtenir_unite() : String</text>
    </g>
    <!--class CapteurRadiation-->
    <g
       id="elem_CapteurRadiation">
      <rect
         codeLine="28"
         fill="#FEFECE"
         filter="url(#f6wf5jviumg1f)"
         height="80.5938"
         id="CapteurRadiation"
         style="stroke:#A80036;stroke-width:1.0;"
         width="185.1338"
         x="667"
         y="371" />
      <ellipse
         cx="695.8067"
         cy="387"
         fill="#ADD1B2"
         rx="11"
         ry="11"
         style="stroke:#A80036;stroke-width:1.0;"
         id="ellipse16" />
      <path
         d="M698.7755,392.6406 Q698.1974,392.9375 697.5567,393.0781 Q696.9161,393.2344 696.213,393.2344 Q693.713,393.2344 692.3849,391.5938 Q691.0724,389.9375 691.0724,386.8125 Q691.0724,383.6875 692.3849,382.0313 Q693.713,380.375 696.213,380.375 Q696.9161,380.375 697.5567,380.5313 Q698.213,380.6875 698.7755,380.9844 L698.7755,383.7031 Q698.1505,383.125 697.5567,382.8594 Q696.963,382.5781 696.338,382.5781 Q694.9942,382.5781 694.3067,383.6563 Q693.6192,384.7188 693.6192,386.8125 Q693.6192,388.9063 694.3067,389.9844 Q694.9942,391.0469 696.338,391.0469 Q696.963,391.0469 697.5567,390.7813 Q698.1505,390.5 698.7755,389.9219 L698.7755,392.6406 Z "
         fill="#000000"
         id="path16" />
      <text
         fill="#000000"
         font-family="sans-serif"
         font-size="14"
         lengthAdjust="spacing"
         textLength="122.4521"
         x="712.8749"
         y="391.8467"
         id="text16">CapteurRadiation</text>
      <line
         style="stroke:#A80036;stroke-width:1.0;"
         x1="668"
         x2="851.1338"
         y1="403"
         y2="403"
         id="line16" />
      <line
         style="stroke:#A80036;stroke-width:1.0;"
         x1="668"
         x2="851.1338"
         y1="411"
         y2="411"
         id="line17" />
      <ellipse
         cx="678"
         cy="424.6484"
         fill="#84BE84"
         rx="3"
         ry="3"
         style="stroke:#038048;stroke-width:1.0;"
         id="ellipse17" />
      <text
         fill="#000000"
         font-family="sans-serif"
         font-size="14"
         lengthAdjust="spacing"
         textLength="132.2617"
         x="687"
         y="427.9951"
         id="text17">lire_valeur() : Float</text>
      <ellipse
         cx="678"
         cy="440.9453"
         fill="#84BE84"
         rx="3"
         ry="3"
         style="stroke:#038048;stroke-width:1.0;"
         id="ellipse18" />
      <text
         fill="#000000"
         font-family="sans-serif"
         font-size="14"
         lengthAdjust="spacing"
         textLength="159.1338"
         x="687"
         y="444.292"
         id="text18">obtenir_unite() : String</text>
    </g>
    <!--class ChaineDeMesure-->
    <g
       id="elem_ChaineDeMesure">
      <rect
         codeLine="34"
         fill="#FEFECE"
         filter="url(#f6wf5jviumg1f)"
         height="96.8906"
         id="ChaineDeMesure"
         style="stroke:#A80036;stroke-width:1.0;"
         width="314.3125"
         x="272.5"
         y="7" />
      <ellipse
         cx="365.7935"
         cy="23"
         fill="#ADD1B2"
         rx="11"
         ry="11"
         style="stroke:#A80036;stroke-width:1.0;"
         id="ellipse19" />
      <path
         d="M368.7622,28.6406 Q368.1841,28.9375 367.5435,29.0781 Q366.9028,29.2344 366.1997,29.2344 Q363.6997,29.2344 362.3716,27.5938 Q361.0591,25.9375 361.0591,22.8125 Q361.0591,19.6875 362.3716,18.0313 Q363.6997,16.375 366.1997,16.375 Q366.9028,16.375 367.5435,16.5313 Q368.1997,16.6875 368.7622,16.9844 L368.7622,19.7031 Q368.1372,19.125 367.5435,18.8594 Q366.9497,18.5781 366.3247,18.5781 Q364.981,18.5781 364.2935,19.6563 Q363.606,20.7188 363.606,22.8125 Q363.606,24.9063 364.2935,25.9844 Q364.981,27.0469 366.3247,27.0469 Q366.9497,27.0469 367.5435,26.7813 Q368.1372,26.5 368.7622,25.9219 L368.7622,28.6406 Z "
         fill="#000000"
         id="path19" />
      <text
         fill="#000000"
         font-family="sans-serif"
         font-size="14"
         lengthAdjust="spacing"
         textLength="119.2256"
         x="386.2935"
         y="27.8467"
         id="text19">ChaineDeMesure</text>
      <line
         style="stroke:#A80036;stroke-width:1.0;"
         x1="273.5"
         x2="585.8125"
         y1="39"
         y2="39"
         id="line19" />
      <ellipse
         cx="283.5"
         cy="52.6484"
         fill="none"
         rx="3"
         ry="3"
         style="stroke:#038048;stroke-width:1.0;"
         id="ellipse20" />
      <text
         fill="#000000"
         font-family="sans-serif"
         font-size="14"
         lengthAdjust="spacing"
         textLength="178.7119"
         x="292.5"
         y="55.9951"
         id="text20">capteurs : List&lt;Capteur&gt;</text>
      <line
         style="stroke:#A80036;stroke-width:1.0;"
         x1="273.5"
         x2="585.8125"
         y1="63.2969"
         y2="63.2969"
         id="line20" />
      <ellipse
         cx="283.5"
         cy="76.9453"
         fill="#84BE84"
         rx="3"
         ry="3"
         style="stroke:#038048;stroke-width:1.0;"
         id="ellipse21" />
      <text
         fill="#000000"
         font-family="sans-serif"
         font-size="14"
         lengthAdjust="spacing"
         textLength="288.3125"
         x="292.5"
         y="80.292"
         id="text21">ajouter_capteur(capteur : Capteur) : void</text>
      <ellipse
         cx="283.5"
         cy="93.2422"
         fill="#84BE84"
         rx="3"
         ry="3"
         style="stroke:#038048;stroke-width:1.0;"
         id="ellipse22" />
      <text
         fill="#000000"
         font-family="sans-serif"
         font-size="14"
         lengthAdjust="spacing"
         textLength="173.6123"
         x="292.5"
         y="96.5889"
         id="text22">effectuer_lecture() : void</text>
    </g>
    <!--reverse link Capteur to CapteurTemperature-->
    <g
       id="link_Capteur_CapteurTemperature">
      <path
         codeLine="41"
         d="M320.5809,300.6309 C270.9209,325.3109 226.51,347.38 179.02,370.98 "
         fill="none"
         id="Capteur-backto-CapteurTemperature"
         style="stroke:#A80036;stroke-width:1.0;" />
      <polygon
         fill="none"
         points="336.7,292.62,317.9106,295.2578,323.2512,306.0039,336.7,292.62"
         style="stroke:#A80036;stroke-width:1.0;"
         id="polygon22" />
    </g>
    <!--reverse link Capteur to CapteurPression-->
    <g
       id="link_Capteur_CapteurPression">
      <path
         codeLine="42"
         d="M376.6279,325.3251 C362.9879,345.6451 358.34,352.59 346.19,370.71 "
         fill="none"
         id="Capteur-backto-CapteurPression"
         style="stroke:#A80036;stroke-width:1.0;" />
      <polygon
         fill="none"
         points="386.66,310.38,371.6462,321.9811,381.6096,328.6692,386.66,310.38"
         style="stroke:#A80036;stroke-width:1.0;"
         id="polygon23" />
    </g>
    <!--reverse link Capteur to CapteurHumidite-->
    <g
       id="link_Capteur_CapteurHumidite">
      <path
         codeLine="43"
         d="M482.3721,325.3251 C496.0121,345.6451 500.66,352.59 512.81,370.71 "
         fill="none"
         id="Capteur-backto-CapteurHumidite"
         style="stroke:#A80036;stroke-width:1.0;" />
      <polygon
         fill="none"
         points="472.34,310.38,477.3904,328.6692,487.3538,321.9811,472.34,310.38"
         style="stroke:#A80036;stroke-width:1.0;"
         id="polygon24" />
    </g>
    <!--reverse link Capteur to CapteurRadiation-->
    <g
       id="link_Capteur_CapteurRadiation">
      <path
         codeLine="44"
         d="M538.4191,300.6309 C588.0791,325.3109 632.49,347.38 679.98,370.98 "
         fill="none"
         id="Capteur-backto-CapteurRadiation"
         style="stroke:#A80036;stroke-width:1.0;" />
      <polygon
         fill="none"
         points="522.3,292.62,535.7488,306.0039,541.0894,295.2578,522.3,292.62"
         style="stroke:#A80036;stroke-width:1.0;"
         id="polygon25" />
    </g>
    <!--reverse link ChaineDeMesure to Capteur-->
    <g
       id="link_ChaineDeMesure_Capteur">
      <path
         codeLine="47"
         d="M429.5,116.43 C429.5,139.6 429.5,155.73 429.5,180.69 "
         fill="none"
         id="ChaineDeMesure-backto-Capteur"
         style="stroke:#A80036;stroke-width:1.0;" />
      <polygon
         fill="none"
         points="429.5,104.43,425.5,110.43,429.5,116.43,433.5,110.43,429.5,104.43"
         style="stroke:#A80036;stroke-width:1.0;"
         id="polygon26" />
      <polygon
         fill="#000000"
         points="434.5,147.5664,437.4389,138.5213,431.5611,138.5213,434.5,147.5664"
         style="stroke:#000000;stroke-width:1.0;"
         id="polygon27" />
      <text
         fill="#000000"
         font-family="sans-serif"
         font-size="13"
         lengthAdjust="spacing"
         textLength="53.3838"
         x="443.5"
         y="147.0669"
         id="text27">contient</text>
    </g>
    <!--SRC=[hLDBRW8n3Dtd5Da1ghX0XTXGLLsqKaMxHoPZm6r8a9EmeJqGv-1YTPXV1sPJbSLe9dwsyyRlENoIq-m3AZNGCmiXe8PbY0mKKSzW5p6nAYCcQfCpwh0-AAtlg5YOwdoltoAJM-SmRdSM36xHnKxS4kDY3rRoXoD17gs7c06_ZEY85yd9pMUeBJ9WQSbOLkmz5UgxvHjqSJeoxK_7_2bFHIUe3jjtOOGCCJ6MnF_EH2xjj7nb386ykrM_fxIb8i_zHltcK134_n5iN37R03bym1SCUOJ6Eoa2KJSvr9Q2q2xmQlRTeaCfPfaYrpnBsQGYEyqOVFWKaMj73LjdLLcD0RB5LYiqCKcwpM_62tlCqPx_Nbmns6IBH5YZ7gvFHoSdiLGumoDL-tdoDHxtsAKNhxNl1MiXUy56bTySXQBCovjABzaQlXevncOXBn3VTfS9P6aexztq1m00]-->
  </g>
</svg>
